<svg width="160" height="35" viewBox="0 0 160 35" fill="none" xmlns="http://www.w3.org/2000/svg">
<path d="M26.639 9.05653V34.3575H22.5076L22.0093 31.2816C19.7525 33.5999 16.6045 34.9893 12.9741 34.9893C5.54979 34.9866 0 29.2898 0 21.7084C0 14.1055 5.54979 8.45419 12.9741 8.45419C16.6467 8.45419 19.8263 9.86233 22.0884 12.2208L22.6869 9.05653H26.639ZM21.5058 21.7084C21.5058 16.9405 18.0731 13.4068 13.3775 13.4068C8.68193 13.4068 5.21496 16.9699 5.21496 21.7084C5.21496 26.4441 8.67929 30.01 13.3775 30.01C18.0757 30.01 21.5058 26.4762 21.5058 21.7084Z" fill="white"/>
<path d="M56.8055 0V34.3709H52.9325L52.2734 31.5011C50.0324 33.6936 46.9714 35 43.4755 35C35.9404 35 30.5225 29.3032 30.5225 21.7191C30.5225 14.1028 35.9404 8.45151 43.4755 8.45151C46.6735 8.45151 49.5077 9.53572 51.6828 11.3963V0H56.8055ZM43.8789 30.0207C48.5744 30.0207 52.0414 26.4227 52.0414 21.7191C52.0414 16.9833 48.5771 13.4175 43.8789 13.4175C39.1807 13.4175 35.7506 16.9512 35.7506 21.7191C35.7506 26.4869 39.1833 30.0207 43.8789 30.0207Z" fill="white"/>
<path d="M76.8956 29.6459V34.3709H73.0885C67.631 34.3709 64.2616 30.9496 64.2616 25.3626V13.5246H59.8059V12.518L68.472 3.16162H69.3447V9.06723H76.7585V13.5219H69.3842V24.9503C69.3842 27.9673 71.0373 29.6459 74.0534 29.6459H76.8956Z" fill="white"/>
<path d="M95.3299 8.92801V13.8404H92.6249C88.388 13.8404 86.2736 16.2926 86.2736 20.8758V34.3682H81.1509V9.06989H84.6152L85.4826 12.5233C87.2649 10.1247 89.7089 8.92801 93.1126 8.92801H95.3299Z" fill="white"/>
<path d="M122.736 9.05653V34.3575H118.605L118.106 31.2816C115.849 33.5999 112.701 34.9893 109.071 34.9893C101.649 34.9893 96.0969 29.2925 96.0969 21.7084C96.0969 14.1055 101.647 8.45419 109.071 8.45419C112.744 8.45419 115.923 9.86233 118.185 12.2208L118.784 9.05653H122.736ZM117.6 21.7084C117.6 16.9405 114.167 13.4068 109.472 13.4068C104.776 13.4068 101.309 16.9726 101.309 21.7084C101.309 26.4441 104.774 30.01 109.472 30.01C114.167 30.0073 117.6 26.4762 117.6 21.7084Z" fill="white"/>
<path d="M135.433 23.5769H132.328V34.3709H127.205V0H132.328V18.8519H135.47L142.196 9.06723H148.268L139.831 21.2104L149.164 34.3682H142.902L135.433 23.5769Z" fill="white"/>
<path d="M155.887 35C158.159 35 160 33.1302 160 30.8238C160 28.5173 158.159 26.6475 155.887 26.6475C153.616 26.6475 151.774 28.5173 151.774 30.8238C151.774 33.1302 153.616 35 155.887 35Z" fill="#FF6B4A"/>
</svg>
