<svg width="11" height="12" viewBox="0 0 11 12" fill="none" xmlns="http://www.w3.org/2000/svg">
<path d="M1.58705 3.01562C1.67188 2.9308 1.71429 2.83036 1.71429 2.71429C1.71429 2.59821 1.67188 2.49777 1.58705 2.41295C1.50223 2.32812 1.40179 2.28571 1.28571 2.28571C1.16964 2.28571 1.0692 2.32812 0.984375 2.41295C0.899554 2.49777 0.857143 2.59821 0.857143 2.71429C0.857143 2.83036 0.899554 2.9308 0.984375 3.01562C1.0692 3.10045 1.16964 3.14286 1.28571 3.14286C1.40179 3.14286 1.50223 3.10045 1.58705 3.01562ZM9.42857 6.57143C9.42857 6.41518 9.37946 6.23437 9.28125 6.02902C9.1875 5.82366 9.0692 5.71875 8.92634 5.71429C8.9933 5.63839 9.04911 5.53348 9.09375 5.39955C9.13839 5.26116 9.16071 5.13616 9.16071 5.02455C9.16071 4.71652 9.04241 4.45089 8.8058 4.22768C8.88616 4.08929 8.92634 3.93527 8.92634 3.76562C8.92634 3.60045 8.88616 3.4375 8.8058 3.27679C8.72991 3.11161 8.625 2.9933 8.49107 2.92188C8.51339 2.78795 8.52455 2.66295 8.52455 2.54688C8.52455 2.16741 8.41518 1.88616 8.19643 1.70312C7.97768 1.52009 7.67411 1.42857 7.28571 1.42857H6.42857C5.84375 1.42857 5.08036 1.59152 4.13839 1.91741C4.11607 1.92634 4.05134 1.95089 3.9442 1.99107C3.83705 2.02679 3.7567 2.05357 3.70312 2.07143C3.65402 2.08929 3.57589 2.11607 3.46875 2.15179C3.36607 2.18304 3.28125 2.20759 3.21429 2.22545C3.15179 2.23884 3.07813 2.25223 2.9933 2.26562C2.91295 2.27902 2.84375 2.28571 2.78571 2.28571H2.57143V6.57143H2.78571C2.85714 6.57143 2.93527 6.59152 3.02009 6.6317C3.10938 6.67187 3.19866 6.73214 3.28795 6.8125C3.3817 6.89286 3.46875 6.97321 3.54911 7.05357C3.62946 7.12946 3.71875 7.22768 3.81696 7.34821C3.91518 7.46429 3.99107 7.55804 4.04464 7.62946C4.10268 7.70089 4.17411 7.79241 4.25893 7.90402C4.34375 8.01562 4.39509 8.08259 4.41295 8.10491C4.65848 8.40848 4.83036 8.61161 4.92857 8.71429C5.11161 8.90625 5.2433 9.15179 5.32366 9.45089C5.40848 9.74554 5.47768 10.0246 5.53125 10.2879C5.58482 10.5513 5.66964 10.7411 5.78571 10.8571C6.21429 10.8571 6.5 10.7522 6.64286 10.5424C6.78571 10.3326 6.85714 10.0089 6.85714 9.57143C6.85714 9.30804 6.75 8.95089 6.53571 8.5C6.32143 8.04464 6.21429 7.6875 6.21429 7.42857H8.57143C8.79464 7.42857 8.9933 7.34375 9.16741 7.17411C9.34152 7 9.42857 6.79911 9.42857 6.57143ZM10.2857 6.57812C10.2857 7.03795 10.1161 7.4375 9.77679 7.77679C9.4375 8.11607 9.03571 8.28571 8.57143 8.28571H7.39286C7.60714 8.72768 7.71429 9.15625 7.71429 9.57143C7.71429 10.0982 7.63616 10.5134 7.47991 10.817C7.32366 11.125 7.09598 11.3504 6.79688 11.4933C6.49777 11.6406 6.16071 11.7143 5.78571 11.7143C5.55804 11.7143 5.35714 11.6317 5.18304 11.4665C5.03125 11.3192 4.91071 11.1362 4.82143 10.9174C4.73214 10.6987 4.67411 10.4955 4.64732 10.308C4.625 10.125 4.58705 9.9375 4.53348 9.74554C4.47991 9.55357 4.41071 9.41071 4.32589 9.31696C4.11161 9.09375 3.87277 8.81027 3.60938 8.46652C3.15848 7.8817 2.85268 7.53571 2.69196 7.42857H0.857143C0.620536 7.42857 0.417411 7.34598 0.247768 7.1808C0.0825893 7.01116 0 6.80804 0 6.57143V2.28571C0 2.04911 0.0825893 1.84821 0.247768 1.68304C0.417411 1.51339 0.620536 1.42857 0.857143 1.42857H2.78571C2.88393 1.42857 3.19196 1.33929 3.70982 1.16071C4.28125 0.964285 4.77902 0.816964 5.20313 0.718749C5.62723 0.620535 6.07366 0.571428 6.54241 0.571428H7.29241C7.91741 0.571428 8.42188 0.747767 8.8058 1.10045C9.1942 1.45312 9.38616 1.93527 9.3817 2.54688V2.58036C9.64955 2.92411 9.78348 3.32143 9.78348 3.77232C9.78348 3.87054 9.77679 3.96652 9.76339 4.06027C9.93304 4.35937 10.0179 4.6808 10.0179 5.02455C10.0179 5.18527 9.99777 5.33929 9.95759 5.48661C10.1763 5.8125 10.2857 6.17634 10.2857 6.57812Z" fill="white"/>
</svg>
