<svg width="15" height="15" viewBox="0 0 15 15" fill="none" xmlns="http://www.w3.org/2000/svg">
<path d="M14.8571 5.5625C14.8571 5.69345 14.7798 5.83631 14.625 5.99107L11.3839 9.15179L12.1518 13.6161C12.1577 13.6577 12.1607 13.7173 12.1607 13.7946C12.1607 13.9196 12.128 14.0238 12.0625 14.1071C12.003 14.1964 11.9137 14.2411 11.7946 14.2411C11.6815 14.2411 11.5625 14.2054 11.4375 14.1339L7.42857 12.0268L3.41964 14.1339C3.28869 14.2054 3.16964 14.2411 3.0625 14.2411C2.9375 14.2411 2.84226 14.1964 2.77679 14.1071C2.71726 14.0238 2.6875 13.9196 2.6875 13.7946C2.6875 13.7589 2.69345 13.6994 2.70536 13.6161L3.47321 9.15179L0.223214 5.99107C0.0744048 5.83036 0 5.6875 0 5.5625C0 5.34226 0.166667 5.20536 0.5 5.15178L4.98214 4.5L6.99107 0.437499C7.10417 0.193452 7.25 0.0714283 7.42857 0.0714283C7.60714 0.0714283 7.75298 0.193452 7.86607 0.437499L9.875 4.5L14.3571 5.15178C14.6905 5.20536 14.8571 5.34226 14.8571 5.5625Z" fill="#11264B"/>
</svg>
