<svg width="11" height="12" viewBox="0 0 11 12" fill="none" xmlns="http://www.w3.org/2000/svg">
<path d="M1.58705 10.0156C1.67188 9.9308 1.71429 9.83036 1.71429 9.71429C1.71429 9.59821 1.67188 9.49777 1.58705 9.41295C1.50223 9.32812 1.40179 9.28571 1.28571 9.28571C1.16964 9.28571 1.0692 9.32812 0.984375 9.41295C0.899554 9.49777 0.857143 9.59821 0.857143 9.71429C0.857143 9.83036 0.899554 9.9308 0.984375 10.0156C1.0692 10.1004 1.16964 10.1429 1.28571 10.1429C1.40179 10.1429 1.50223 10.1004 1.58705 10.0156ZM9.42857 5.85714C9.42857 5.62946 9.34152 5.4308 9.16741 5.26116C8.9933 5.08705 8.79464 5 8.57143 5H6.21429C6.21429 4.74107 6.32143 4.38616 6.53571 3.93527C6.75 3.47991 6.85714 3.12054 6.85714 2.85714C6.85714 2.41964 6.78571 2.09598 6.64286 1.88616C6.5 1.67634 6.21429 1.57143 5.78571 1.57143C5.66964 1.6875 5.58482 1.87723 5.53125 2.14062C5.47768 2.40402 5.40848 2.68527 5.32366 2.98437C5.2433 3.27902 5.11161 3.52232 4.92857 3.71429C4.83036 3.81696 4.65848 4.02009 4.41295 4.32366C4.39509 4.34598 4.34375 4.41295 4.25893 4.52455C4.17411 4.63616 4.10268 4.72768 4.04464 4.79911C3.99107 4.87054 3.91518 4.96652 3.81696 5.08705C3.71875 5.20312 3.62946 5.30134 3.54911 5.3817C3.46875 5.45759 3.3817 5.53571 3.28795 5.61607C3.19866 5.69643 3.10938 5.7567 3.02009 5.79687C2.93527 5.83705 2.85714 5.85714 2.78571 5.85714H2.57143V10.1429H2.78571C2.84375 10.1429 2.91295 10.1496 2.9933 10.1629C3.07813 10.1763 3.15179 10.192 3.21429 10.2098C3.28125 10.2232 3.36607 10.2478 3.46875 10.2835C3.57589 10.3147 3.65402 10.3393 3.70312 10.3571C3.7567 10.375 3.83705 10.404 3.9442 10.4442C4.05134 10.4799 4.11607 10.5022 4.13839 10.5112C5.08036 10.8371 5.84375 11 6.42857 11H7.23884C8.09598 11 8.52455 10.6272 8.52455 9.8817C8.52455 9.76562 8.51339 9.64062 8.49107 9.5067C8.625 9.43527 8.72991 9.3192 8.8058 9.15848C8.88616 8.9933 8.92634 8.82812 8.92634 8.66295C8.92634 8.49777 8.88616 8.34375 8.8058 8.20089C9.04241 7.97768 9.16071 7.71205 9.16071 7.40402C9.16071 7.29241 9.13839 7.16964 9.09375 7.03571C9.04911 6.89732 8.9933 6.79018 8.92634 6.71429C9.0692 6.70982 9.1875 6.60491 9.28125 6.39955C9.37946 6.1942 9.42857 6.01339 9.42857 5.85714ZM10.2857 5.85045C10.2857 6.24777 10.1763 6.61161 9.95759 6.94196C9.99777 7.08929 10.0179 7.2433 10.0179 7.40402C10.0179 7.74777 9.93304 8.0692 9.76339 8.3683C9.77679 8.46205 9.78348 8.55804 9.78348 8.65625C9.78348 9.10714 9.64955 9.50446 9.3817 9.84821C9.38616 10.4687 9.19643 10.9576 8.8125 11.3147C8.42857 11.6763 7.92188 11.8571 7.29241 11.8571H7.05134H6.42857C6 11.8571 5.57589 11.8058 5.15625 11.7031C4.74107 11.6049 4.25893 11.4598 3.70982 11.2679C3.19196 11.0893 2.88393 11 2.78571 11H0.857143C0.620536 11 0.417411 10.9174 0.247768 10.7522C0.0825893 10.5826 0 10.3795 0 10.1429V5.85714C0 5.62054 0.0825893 5.41964 0.247768 5.25446C0.417411 5.08482 0.620536 5 0.857143 5H2.69196C2.85268 4.89286 3.15848 4.54687 3.60938 3.96205C3.8683 3.62723 4.10714 3.34152 4.32589 3.10491C4.43304 2.9933 4.51116 2.80357 4.56027 2.53571C4.61384 2.26339 4.68304 1.97991 4.76786 1.68527C4.85268 1.39062 4.99107 1.14955 5.18304 0.962053C5.35714 0.796874 5.55804 0.714285 5.78571 0.714285C6.16071 0.714285 6.49777 0.787946 6.79688 0.935267C7.09598 1.07812 7.32366 1.30357 7.47991 1.61161C7.63616 1.91964 7.71429 2.33482 7.71429 2.85714C7.71429 3.27232 7.60714 3.70089 7.39286 4.14286H8.57143C9.03571 4.14286 9.4375 4.3125 9.77679 4.65179C10.1161 4.99107 10.2857 5.39062 10.2857 5.85045Z" fill="#205114"/>
</svg>
