<svg width="427" height="427" viewBox="0 0 427 427" fill="none" xmlns="http://www.w3.org/2000/svg">
<g clip-path="url(#clip0)">
<path d="M234.667 192H192V320H234.667V192Z" fill="#FF6B4A"/>
<path d="M213.333 0C95.467 0 0 95.467 0 213.333C0 331.199 95.467 426.666 213.333 426.666C331.199 426.666 426.667 331.2 426.667 213.333C426.667 95.466 331.2 0 213.333 0ZM213.333 384C119.253 384 42.666 307.413 42.666 213.333C42.666 119.253 119.253 42.667 213.333 42.667C307.413 42.667 384 119.253 384 213.333C384 307.413 307.413 384 213.333 384Z" fill="#FF6B4A"/>
<path d="M234.667 106.667H192V149.334H234.667V106.667Z" fill="#FF6B4A"/>
</g>
<defs>
<clipPath id="clip0">
<rect width="426.667" height="426.667" fill="white"/>
</clipPath>
</defs>
</svg>
